<svg width="30" height="27" viewBox="0 0 30 27" fill="none" xmlns="http://www.w3.org/2000/svg">
<path d="M14.6357 3.42677L15 3.81445L15.3644 3.42676C16.4668 2.25365 18.6709 0.5 22 0.5C26.356 0.5 29.5 4.39592 29.5 9.14555C29.5 10.8612 29.0539 13.4269 27.0623 16.3696C25.0679 19.3165 21.5077 22.6649 15.2427 25.9119L15.2427 25.9119C15.0917 25.9902 14.9082 25.9901 14.7573 25.9119L14.7573 25.9119C8.49237 22.6649 4.93215 19.3165 2.93774 16.3696C0.946145 13.4269 0.5 10.8612 0.5 9.14555C0.5 4.4996 3.5564 0.5 7.99998 0.5C11.3291 0.5 13.5332 2.25375 14.6357 3.42677Z" fill="white" stroke="black"/>
</svg>
