<svg width="16" height="16" viewBox="0 0 16 16" fill="none" xmlns="http://www.w3.org/2000/svg">
<path d="M11.3804 9.79178C12.1779 10.0553 13.0195 10.1894 13.8766 10.1894C14.496 10.1894 15 10.6934 15 11.3127V13.8766C15 14.496 14.496 15 13.8766 15C6.77637 15 1 9.22365 1 2.12335C1 1.50396 1.50396 1 2.12335 1H4.69442C5.31385 1 5.81781 1.50396 5.81777 2.12343C5.81777 2.98093 5.95223 3.82213 6.21692 4.62385C6.34569 5.03401 6.23821 5.47114 5.93856 5.77039L4.7852 7.30354C4.7852 7.30354 6.87091 10.2396 8.69648 11.2141L10.2706 10.0257C10.53 9.76141 10.9827 9.65619 11.3804 9.79178Z" stroke="#201F1D" stroke-linecap="round" stroke-linejoin="round"/>
</svg>
