<svg width="40" height="40" viewBox="0 0 40 40" fill="none" xmlns="http://www.w3.org/2000/svg">
<g clip-path="url(#clip0)">
<path d="M15.2954 7.96913C15.5286 7.96913 15.7656 7.9167 15.9886 7.806C17.1961 7.20694 18.4943 6.89397 19.8471 6.87585C19.8607 6.87569 19.8739 6.87381 19.8874 6.87327C19.8989 6.8735 19.9102 6.87499 19.9218 6.87499C19.9631 6.87499 20.0035 6.87202 20.0439 6.86889C20.08 6.87186 20.1161 6.87538 20.1528 6.87585C25.1087 6.94241 29.1406 11.0074 29.1406 15.9375V21.4062C29.1406 23.7918 30.076 25.8942 31.8455 27.4862C33.0944 28.6099 34.3367 29.0946 34.534 29.1673C34.7248 29.2503 34.9349 29.2968 35.1562 29.2968C36.0191 29.2968 36.7187 28.5973 36.7187 27.7343C36.7187 27.0277 36.2494 26.4313 35.6055 26.2382L35.6075 26.2325L35.6174 26.2361C35.4806 26.1847 32.2656 24.9349 32.2656 21.4062V15.9375C32.2656 9.74123 27.536 4.56163 21.4843 3.8371V1.5625C21.4843 0.69953 20.7848 0 19.9218 0C19.0589 0 18.3593 0.69953 18.3593 1.5625V3.85671C17.0539 4.02991 15.7941 4.41405 14.5998 5.00655C13.8268 5.39007 13.5111 6.32764 13.8946 7.10069C14.1674 7.65061 14.7205 7.96913 15.2954 7.96913Z" fill="#FF5733"/>
<path d="M39.5423 37.3331L2.66741 0.458163C2.05717 -0.15207 1.0678 -0.15207 0.457646 0.458163C-0.152509 1.0684 -0.152588 2.05769 0.457646 2.66785L8.83849 11.0488C8.16607 12.5839 7.81248 14.256 7.81248 15.938V21.4067C7.81248 24.8959 4.66889 26.157 4.46631 26.2345C3.83842 26.4529 3.43748 27.038 3.43748 27.7031C3.43748 29.343 4.0217 31.136 5.00022 32.4994C6.30248 34.3137 8.24498 35.3129 10.4696 35.3129H15.3125C15.3125 37.8976 17.4153 40.0004 20 40.0004C22.5846 40.0004 24.6874 37.8976 24.6874 35.3129H29.5303C30.6095 35.3129 31.6 35.1058 32.4871 34.6975L37.3325 39.5429C37.6377 39.8479 38.0376 40.0004 38.4374 40.0004C38.8373 40.0004 39.2372 39.8479 39.5423 39.5429C40.1526 38.9327 40.1526 37.9432 39.5423 37.3331ZM20 36.8754C19.1384 36.8754 18.4375 36.1745 18.4375 35.3129H21.5624C21.5624 36.1746 20.8616 36.8754 20 36.8754ZM29.5304 32.1879H10.4696C8.05302 32.1879 6.97474 30.1632 6.66295 28.6259C7.12412 28.359 7.67771 27.9859 8.23255 27.4867C10.0022 25.8948 10.9375 23.7923 10.9375 21.4067V15.938C10.9375 15.1083 11.0529 14.282 11.2763 13.4867L29.957 32.1674C29.8181 32.1797 29.6767 32.1879 29.5304 32.1879Z" fill="#FF5733"/>
</g>
<defs>
<clipPath id="clip0">
<rect width="40" height="40" fill="white"/>
</clipPath>
</defs>
</svg>
