<svg width="789" height="222" viewBox="0 0 789 222" fill="none" xmlns="http://www.w3.org/2000/svg">
<g opacity="0.91">
<path d="M211.611 137.838L211.458 109.304L197.613 132.531H190.844L177.076 110.073V137.838H163V84H175.537L194.459 115.072L212.919 84H225.456L225.61 137.838H211.611Z" fill="white"/>
<path d="M287.305 126.071V137.838H244.078V84H286.305V95.7675H259.154V104.843H283.075V116.226H259.154V126.071H287.305Z" fill="white"/>
<path d="M344.829 109.765C347.906 110.842 350.316 112.534 352.059 114.842C353.803 117.098 354.675 119.841 354.675 123.071C354.675 127.788 352.777 131.429 348.983 133.993C345.188 136.556 339.701 137.838 332.523 137.838H303.448V84H330.984C337.855 84 343.086 85.2819 346.675 87.8456C350.265 90.358 352.059 93.7678 352.059 98.0748C352.059 100.639 351.418 102.946 350.137 104.997C348.906 106.997 347.137 108.586 344.829 109.765ZM318.524 94.9984V105.381H328.984C334.112 105.381 336.676 103.638 336.676 100.151C336.676 96.7161 334.112 94.9984 328.984 94.9984H318.524ZM331.292 126.84C336.625 126.84 339.291 125.02 339.291 121.379C339.291 117.739 336.625 115.918 331.292 115.918H318.524V126.84H331.292Z" fill="white"/>
<path d="M413.482 126.071V137.838H370.254V84H412.482V95.7675H385.33V104.843H409.251V116.226H385.33V126.071H413.482Z" fill="white"/>
<path d="M429.625 84H444.854V125.763H470.544V137.838H429.625V84Z" fill="white"/>
<path d="M484.262 84H499.492V137.838H484.262V84Z" fill="white"/>
<path d="M561.246 126.071V137.838H518.019V84H560.246V95.7675H533.094V104.843H557.015V116.226H533.094V126.071H561.246Z" fill="white"/>
<path d="M600.925 123.533H592.618V137.838H577.389V84H602.002C606.873 84 611.104 84.8204 614.693 86.4612C618.283 88.0507 621.052 90.358 623 93.3832C624.949 96.3571 625.923 99.8694 625.923 103.92C625.923 107.817 625 111.227 623.154 114.149C621.359 117.021 618.77 119.277 615.386 120.918L627 137.838H610.694L600.925 123.533ZM610.54 103.92C610.54 101.408 609.745 99.4592 608.155 98.0748C606.566 96.6904 604.207 95.9982 601.079 95.9982H592.618V111.765H601.079C604.207 111.765 606.566 111.099 608.155 109.765C609.745 108.381 610.54 106.433 610.54 103.92Z" fill="white"/>
</g>
<rect x="1.5" y="1.5" width="786" height="219" stroke="white" stroke-width="3"/>
</svg>
