<svg width="40" height="40" viewBox="0 0 40 40" fill="none" xmlns="http://www.w3.org/2000/svg">
<rect opacity="0.5" width="40" height="40" rx="20" fill="white"/>
<path d="M20.8814 18.0579C20.5885 18.3508 20.5885 18.8257 20.8814 19.1186C21.1743 19.4115 21.6492 19.4115 21.9421 19.1186L20.8814 18.0579ZM28.75 12C28.75 11.5858 28.4142 11.25 28 11.25H21.25C20.8358 11.25 20.5 11.5858 20.5 12C20.5 12.4142 20.8358 12.75 21.25 12.75H27.25V18.75C27.25 19.1642 27.5858 19.5 28 19.5C28.4142 19.5 28.75 19.1642 28.75 18.75V12ZM21.9421 19.1186L28.5303 12.5303L27.4697 11.4697L20.8814 18.0579L21.9421 19.1186Z" fill="white"/>
<path d="M19.1186 21.9421C19.4115 21.6492 19.4115 21.1743 19.1186 20.8814C18.8257 20.5885 18.3508 20.5885 18.0579 20.8814L19.1186 21.9421ZM11.25 28C11.25 28.4142 11.5858 28.75 12 28.75H18.75C19.1642 28.75 19.5 28.4142 19.5 28C19.5 27.5858 19.1642 27.25 18.75 27.25H12.75V21.25C12.75 20.8358 12.4142 20.5 12 20.5C11.5858 20.5 11.25 20.8358 11.25 21.25V28ZM18.0579 20.8814L11.4697 27.4697L12.5303 28.5303L19.1186 21.9421L18.0579 20.8814Z" fill="white"/>
</svg>
