<svg width="32" height="44" viewBox="0 0 32 44" fill="none" xmlns="http://www.w3.org/2000/svg">
<path d="M27.3091 32.8342H4.71625C4.19392 32.8342 3.76904 33.2591 3.76904 33.7814V36.752C3.76904 37.2743 4.19392 37.6992 4.71625 37.6992H20.2904C20.6464 37.6992 20.935 37.4106 20.935 37.0547C20.935 36.6987 20.6464 36.4101 20.2904 36.4101H5.0581V34.1233H26.9673V36.4101H23.3153C22.9593 36.4101 22.6707 36.6987 22.6707 37.0547C22.6707 37.4106 22.9593 37.6992 23.3153 37.6992H27.3091C27.8315 37.6992 28.2563 37.2743 28.2563 36.752V33.7814C28.2563 33.2591 27.8315 32.8342 27.3091 32.8342Z" fill="#FF5733"/>
<path d="M30.784 0H1.21558C0.859623 0 0.571045 0.288578 0.571045 0.644531C0.571045 1.00048 0.859623 1.28906 1.21558 1.28906H1.24505V38.7052C1.24505 39.51 1.89981 40.1647 2.70453 40.1647H3.10465L2.68571 41.9827C2.68373 41.9912 2.68201 41.9998 2.6803 42.0084C2.58765 42.5016 2.71819 43.006 3.03865 43.3922C3.35903 43.7784 3.83057 43.9999 4.33244 43.9999C5.1614 43.9999 5.91189 43.4814 6.20605 42.7077L7.30304 40.1647H24.8131L25.9101 42.7077C26.2043 43.4814 26.9548 43.9999 27.7838 43.9999C28.2855 43.9999 28.7572 43.7784 29.0775 43.3922C29.398 43.006 29.5285 42.5016 29.4359 42.0084C29.4343 41.9998 29.4325 41.9912 29.4305 41.9827L29.0115 40.1647H29.3204C30.1252 40.1647 30.78 39.5099 30.78 38.7052V1.28906H30.784C31.14 1.28906 31.4285 1.00048 31.4285 0.644531C31.4285 0.288578 31.14 0 30.784 0ZM4.83793 3.59098H5.85259V10.1229H4.83793V3.59098ZM7.14165 6.99239L8.42075 10.1229H7.14165V6.99239ZM25.6871 7.47098C25.9583 7.76351 26.1077 8.14464 26.1077 8.54425C26.1077 8.9852 25.9305 9.39426 25.6088 9.69607C25.2877 9.99737 24.8671 10.1477 24.4252 10.1196C23.6096 10.0676 22.9622 9.38506 22.9514 8.56582C22.9461 8.16501 23.0911 7.7813 23.3594 7.48524C23.8372 6.95836 24.1003 6.29432 24.1003 5.6155V4.76515C24.1003 4.75922 24.1052 4.75432 24.1111 4.75432H24.9478C24.9537 4.75432 24.9586 4.75922 24.9586 4.76515V5.59616C24.9586 6.29853 25.2173 6.96438 25.6871 7.47098ZM29.4909 11.412V20.2459H25.7655V16.2178C25.7655 15.7619 25.3947 15.3911 24.9388 15.3911H17.0277C16.5719 15.3911 16.201 15.7619 16.201 16.2178V20.2459H15.0433C14.6874 20.2459 14.3988 20.5345 14.3988 20.8905C14.3988 21.2464 14.6874 21.535 15.0433 21.535H29.491V22.5149H25.7102C25.4279 22.5149 25.1784 22.6572 25.0292 22.8738L23.8604 22.3963C23.6559 22.3126 23.4312 22.3138 23.2275 22.3993C23.0238 22.4848 22.8657 22.6445 22.7823 22.8488L19.9495 29.782C19.8699 29.9767 19.8712 30.1843 19.9362 30.3687H12.0697C12.0777 30.331 12.0856 30.2931 12.0909 30.2545L12.6032 26.518C12.6543 26.1451 12.5416 25.7684 12.2942 25.4849C12.0468 25.2012 11.689 25.0385 11.3125 25.0385H9.87455V24.5191H10.152C11.7287 24.5191 13.0115 23.2363 13.0115 21.6596V21.2332C13.0115 20.6283 12.5194 20.1361 11.9145 20.1361H11.488C10.8219 20.1361 10.2088 20.3657 9.7221 20.7491C9.3383 19.6222 8.27019 18.809 7.01507 18.809H6.07826C5.47335 18.809 4.98119 19.3011 4.98119 19.906V20.2459H2.53412V11.4448L29.4909 11.412ZM23.591 30.3688L24.8834 27.2055V30.3688H23.591ZM21.3176 29.8416L23.8007 23.7645L24.74 24.1483L22.257 30.2254L21.3176 29.8416ZM27.1872 30.3688H26.1724V23.8039H27.1872V30.3688ZM28.4762 23.8039H29.491V30.3688H28.4762V23.8039ZM17.4902 19.1075H24.4765V20.2458H17.4902V19.1075ZM24.4765 17.8185H17.4902V16.6801H24.4765V17.8185ZM2.53412 21.535H5.06626C5.37658 22.7783 6.50254 23.7023 7.84058 23.7023H8.58541V25.0386H7.23335C6.85694 25.0386 6.4991 25.2013 6.25169 25.4849C6.00427 25.7686 5.89161 26.1452 5.94274 26.5182L6.45501 30.2546C6.46034 30.2932 6.46816 30.331 6.47615 30.3688H2.53412V21.535ZM8.58541 22.4133H7.84058C6.97468 22.4133 6.27016 21.7088 6.27016 20.8429V20.098H7.01498C7.88089 20.098 8.58541 20.8025 8.58541 21.6685V22.4133ZM7.73213 30.0795L7.21986 26.3431C7.21943 26.3398 7.219 26.3369 7.22312 26.3323C7.22716 26.3276 7.23008 26.3276 7.23335 26.3276H11.3124C11.3157 26.3276 11.3186 26.3276 11.3226 26.3323C11.3266 26.3369 11.3263 26.3398 11.3259 26.343L10.8136 30.0794C10.791 30.2443 10.6484 30.3687 10.482 30.3687H8.06376C7.8973 30.3688 7.75473 30.2444 7.73213 30.0795ZM9.91744 23.2301V22.9957C9.91744 22.1297 10.622 21.4252 11.4879 21.4252H11.7223V21.6598C11.7223 22.5257 11.0178 23.2302 10.1519 23.2302H9.91744V23.2301ZM9.76808 10.0123L7.28508 3.93516L8.22438 3.55137L10.7074 9.62852L9.76808 10.0123ZM3.54887 10.1229H2.53412V3.59098H3.54887V10.1229ZM5.01625 42.2114C5.01169 42.222 5.0074 42.2326 5.00344 42.2434C4.90015 42.523 4.63056 42.7108 4.33244 42.7108C4.17226 42.7108 4.07463 42.6221 4.0308 42.5691C3.98783 42.5173 3.92063 42.4087 3.94547 42.2565L4.42749 40.1647H5.89917L5.01625 42.2114ZM28.1707 42.2565C28.1957 42.4087 28.1284 42.5173 28.0854 42.5691C28.0415 42.6221 27.9439 42.7108 27.7838 42.7108C27.4856 42.7108 27.2161 42.523 27.1127 42.2434C27.1087 42.2326 27.1044 42.2219 27.1 42.2114L26.217 40.1647H27.6887L28.1707 42.2565ZM29.4909 38.7052C29.4909 38.7992 29.4144 38.8756 29.3204 38.8756H2.70462C2.6106 38.8756 2.5342 38.7991 2.5342 38.7052V31.6578H29.491V38.7052H29.4909ZM29.4909 10.1229H26.9214C27.2275 9.65774 27.3968 9.10809 27.3968 8.54425C27.3968 7.81859 27.1253 7.12611 26.6323 6.5945C26.3843 6.32706 26.2477 5.97248 26.2477 5.59616V4.76515C26.2477 4.04843 25.6645 3.46526 24.9478 3.46526H24.1111C23.3944 3.46526 22.8112 4.04843 22.8112 4.76515V5.6155C22.8112 5.9736 22.6668 6.33007 22.4044 6.61934C21.9164 7.15773 21.6528 7.85503 21.6624 8.58275C21.6699 9.14848 21.845 9.67819 22.1402 10.1229H12.101C12.1569 9.94116 12.1485 9.74737 12.0756 9.56905L9.24274 2.6357C9.07026 2.21384 8.58661 2.01085 8.16483 2.18324L6.9959 2.6608C6.84672 2.44423 6.59724 2.30184 6.31494 2.30184H2.53412V1.28906H29.4909V10.1229Z" fill="#FF5733"/>
</svg>
