<svg width="63" height="44" viewBox="0 0 63 44" fill="none" xmlns="http://www.w3.org/2000/svg">
<path d="M6.875 28.875H5.5V34.375H6.875V42.625H8.25V34.375H9.625V28.875H8.25V26.125H15.125V28.875H13.75V34.375H15.125V42.625H16.5V34.375H17.875V28.875H16.5V26.125H21.3125V22H19.9375V9.625C19.9375 7.43696 19.0683 5.33854 17.5211 3.79137C15.974 2.24419 13.8755 1.375 11.6875 1.375C9.49946 1.375 7.40104 2.24419 5.85387 3.79137C4.30669 5.33854 3.4375 7.43696 3.4375 9.625V22H2.0625V26.125H6.875V28.875ZM8.25 33H6.875V30.25H8.25V33ZM16.5 33H15.125V30.25H16.5V33ZM4.8125 9.625C4.8125 7.80164 5.53683 6.05295 6.82614 4.76364C8.11545 3.47433 9.86414 2.75 11.6875 2.75C13.5109 2.75 15.2595 3.47433 16.5489 4.76364C17.8382 6.05295 18.5625 7.80164 18.5625 9.625V22H17.1875V15.125C17.1875 14.9427 17.1151 14.7678 16.9861 14.6389C16.8572 14.5099 16.6823 14.4375 16.5 14.4375H13.75C13.5677 14.4375 13.3928 14.5099 13.2639 14.6389C13.1349 14.7678 13.0625 14.9427 13.0625 15.125V17.6688L11.803 19.558C11.7345 19.6615 11.6953 19.7816 11.6895 19.9057C11.6838 20.0297 11.7117 20.1529 11.7703 20.2623C11.829 20.3717 11.9162 20.4632 12.0226 20.5271C12.1291 20.5909 12.2509 20.6248 12.375 20.625H15.8125V22H7.5625V20.625H9.625C9.73816 20.625 9.84957 20.5971 9.94935 20.5437C10.0491 20.4904 10.1342 20.4132 10.197 20.3191L11.572 18.2566C11.6471 18.1435 11.6873 18.0108 11.6875 17.875V15.125C11.6875 14.9427 11.6151 14.7678 11.4861 14.6389C11.3572 14.5099 11.1823 14.4375 11 14.4375H6.875C6.69266 14.4375 6.5178 14.5099 6.38886 14.6389C6.25993 14.7678 6.1875 14.9427 6.1875 15.125V22H4.8125V9.625ZM15.8125 15.8125V19.25H13.6599L14.322 18.2566C14.3971 18.1435 14.4373 18.0108 14.4375 17.875V15.8125H15.8125ZM7.5625 19.25V15.8125H10.3125V17.6688L9.25719 19.25H7.5625ZM3.4375 24.75V23.375H19.9375V24.75H3.4375Z" fill="#DD7272"/>
<path d="M14.4437 6.29739C15.3519 7.09283 15.8125 8.44377 15.8125 10.3124H17.1875C17.1875 8.01958 16.5632 6.31595 15.3312 5.24895C14.813 4.82375 14.2152 4.50597 13.5729 4.31416C12.9305 4.12236 12.2564 4.06035 11.5899 4.13177L11.7817 5.4937C12.7398 5.40457 13.6949 5.69293 14.4437 6.29739Z" fill="#DD7272"/>
<path d="M15.8125 11.6875H17.1875V13.0625H15.8125V11.6875Z" fill="#DD7272"/>
<path d="M24.0625 9.625V22H22.6875V26.125H27.5V28.875H26.125V34.375H27.5V42.625H28.875V34.375H30.25V28.875H28.875V26.125H35.75V28.875H34.375V34.375H35.75V42.625H37.125V34.375H38.5V28.875H37.125V26.125H41.9375V22H40.5625V9.625C40.5625 7.43696 39.6933 5.33854 38.1461 3.79137C36.599 2.24419 34.5005 1.375 32.3125 1.375C30.1245 1.375 28.026 2.24419 26.4789 3.79137C24.9317 5.33854 24.0625 7.43696 24.0625 9.625ZM28.875 33H27.5V30.25H28.875V33ZM37.125 33H35.75V30.25H37.125V33ZM40.5625 24.75H24.0625V23.375H40.5625V24.75ZM36.4375 19.25H34.2849L34.947 18.2566C35.0221 18.1435 35.0623 18.0108 35.0625 17.875V15.8125H36.4375V19.25ZM39.1875 9.625V22H37.8125V15.125C37.8125 14.9427 37.7401 14.7678 37.6111 14.6389C37.4822 14.5099 37.3073 14.4375 37.125 14.4375H34.375C34.1927 14.4375 34.0178 14.5099 33.8889 14.6389C33.7599 14.7678 33.6875 14.9427 33.6875 15.125V17.6688L32.428 19.558C32.3595 19.6615 32.3203 19.7816 32.3145 19.9057C32.3088 20.0297 32.3367 20.1529 32.3953 20.2623C32.454 20.3717 32.5412 20.4632 32.6476 20.5271C32.7541 20.5909 32.8759 20.6248 33 20.625H36.4375V22H28.1875V20.625H30.25C30.3632 20.625 30.4746 20.5971 30.5744 20.5437C30.6741 20.4904 30.7592 20.4132 30.822 20.3191L32.197 18.2566C32.2721 18.1435 32.3123 18.0108 32.3125 17.875V15.125C32.3125 14.9427 32.2401 14.7678 32.1111 14.6389C31.9822 14.5099 31.8073 14.4375 31.625 14.4375H27.5C27.3177 14.4375 27.1428 14.5099 27.0139 14.6389C26.8849 14.7678 26.8125 14.9427 26.8125 15.125V22H25.4375V9.625C25.4375 7.80164 26.1618 6.05295 27.4511 4.76364C28.7405 3.47433 30.4891 2.75 32.3125 2.75C34.1359 2.75 35.8845 3.47433 37.1739 4.76364C38.4632 6.05295 39.1875 7.80164 39.1875 9.625ZM28.1875 19.25V15.8125H30.9375V17.6688L29.8822 19.25H28.1875Z" fill="#5FFC9E"/>
<path d="M32.4067 5.49373C33.3648 5.40467 34.3199 5.69302 35.0687 6.29742C35.9769 7.09286 36.4375 8.44379 36.4375 10.3124H37.8125C37.8125 8.01961 37.1882 6.31598 35.9562 5.24898C35.438 4.82374 34.8403 4.50595 34.1979 4.31414C33.5556 4.12233 32.8814 4.06034 32.2149 4.13179L32.4067 5.49373Z" fill="#5FFC9E"/>
<path d="M36.4375 11.6875H37.8125V13.0625H36.4375V11.6875Z" fill="#5FFC9E"/>
<path fill-rule="evenodd" clip-rule="evenodd" d="M44.375 22V9.625C44.375 7.43696 45.2442 5.33854 46.7914 3.79137C48.3385 2.24419 50.437 1.375 52.625 1.375C54.813 1.375 56.9115 2.24419 58.4586 3.79137C60.0058 5.33854 60.875 7.43696 60.875 9.625V22H62.25V26.125H57.4375V28.875H58.8125V34.375H57.4375V42.625H56.0625V34.375H54.6875V28.875H56.0625V26.125H49.1875V28.875H50.5625V34.375H49.1875V42.625H47.8125V34.375H46.4375V28.875H47.8125V26.125H43V22H44.375ZM47.8125 30.25V33H49.1875V30.25H47.8125ZM56.0625 30.25V33H57.4375V30.25H56.0625ZM44.375 23.375V24.75H60.875V23.375H44.375ZM54.5974 19.25H56.75V15.8125H55.375V17.875C55.3748 18.0108 55.3346 18.1435 55.2595 18.2566L54.5974 19.25ZM59.5 22V9.625C59.5 7.80164 58.7757 6.05295 57.4864 4.76364C56.197 3.47433 54.4484 2.75 52.625 2.75C50.8016 2.75 49.053 3.47433 47.7636 4.76364C46.4743 6.05295 45.75 7.80164 45.75 9.625V22H47.125V15.125C47.125 14.9427 47.1974 14.7678 47.3264 14.6389C47.4553 14.5099 47.6302 14.4375 47.8125 14.4375H51.9375C52.1198 14.4375 52.2947 14.5099 52.4236 14.6389C52.5526 14.7678 52.625 14.9427 52.625 15.125V17.875C52.6248 18.0108 52.5846 18.1435 52.5095 18.2566L51.1345 20.3191C51.0717 20.4132 50.9866 20.4904 50.8869 20.5437C50.7871 20.5971 50.6757 20.625 50.5625 20.625H48.5V22H56.75V20.625H53.3125C53.1884 20.6248 53.0666 20.5909 52.9601 20.5271C52.8537 20.4632 52.7665 20.3717 52.7078 20.2623C52.6492 20.1529 52.6213 20.0297 52.627 19.9057C52.6328 19.7816 52.672 19.6615 52.7405 19.558L54 17.6688V15.125C54 14.9427 54.0724 14.7678 54.2014 14.6389C54.3303 14.5099 54.5052 14.4375 54.6875 14.4375H57.4375C57.6198 14.4375 57.7947 14.5099 57.9236 14.6389C58.0526 14.7678 58.125 14.9427 58.125 15.125V22H59.5ZM48.5 15.8125V19.25H50.1947L51.25 17.6688V15.8125H48.5ZM52.1918 5.49373C53.15 5.40467 54.105 5.69302 54.8538 6.29742C55.762 7.09285 56.2226 8.44379 56.2226 10.3124H57.5976C57.5976 8.01961 56.9734 6.31598 55.7414 5.24898C55.2231 4.82374 54.6254 4.50595 53.983 4.31414C53.3407 4.12233 52.6666 4.06034 52 4.13179L52.1918 5.49373ZM56.2227 11.6875H57.5977V13.0625H56.2227V11.6875Z" fill="#81BBE4"/>
</svg>
