<svg width="44" height="41" viewBox="0 0 44 41" fill="none" xmlns="http://www.w3.org/2000/svg">
<path d="M41.6136 0H2.38644C1.07053 0 0 1.07053 0 2.38644V11.0272C0 11.3864 0.291382 11.6781 0.650909 11.6781C1.01044 11.6781 1.30182 11.3864 1.30182 11.0272V2.38644C1.30182 1.78857 1.78857 1.30182 2.38644 1.30182H41.6136C42.2118 1.30182 42.6982 1.78857 42.6982 2.38644V28.4221C42.6982 29.0204 42.2114 29.5068 41.6136 29.5068H28.1378C28.1818 29.2094 28.205 28.9052 28.205 28.5954C28.205 28.2859 28.1818 27.9817 28.1378 27.6843H36.5798C36.9394 27.6843 37.2307 27.3929 37.2307 27.0334C37.2307 25.3824 38.5739 24.0393 40.2248 24.0393C40.5843 24.0393 40.8757 23.748 40.8757 23.3884V12.3163C40.8757 11.9567 40.5843 11.6653 40.2248 11.6653C39.8653 11.6653 39.5739 11.9567 39.5739 12.3163V22.7869C37.7252 23.0692 36.2603 24.5338 35.9783 26.3825H27.7957C26.9025 24.0511 24.6419 22.3904 22 22.3904C19.3581 22.3904 17.0975 24.0511 16.2043 26.3825H8.02173C7.73975 24.5338 6.27478 23.0692 4.42612 22.7869V8.02173C6.27478 7.73941 7.73975 6.27478 8.02173 4.42612H35.9783C36.2606 6.27478 37.7252 7.73941 39.5739 8.02173V9.28058C39.5739 9.64011 39.8656 9.93149 40.2248 9.93149C40.5843 9.93149 40.8757 9.64011 40.8757 9.28058V7.42017C40.8757 7.06064 40.5843 6.76926 40.2248 6.76926C38.5739 6.76926 37.2307 5.42615 37.2307 3.77521C37.2307 3.41568 36.9394 3.1243 36.5798 3.1243H7.42017C7.06064 3.1243 6.76926 3.41568 6.76926 3.77521C6.76926 5.42615 5.42615 6.76926 3.77521 6.76926C3.41568 6.76926 3.1243 7.06064 3.1243 7.42017V23.3884C3.1243 23.748 3.41568 24.0393 3.77521 24.0393C5.42615 24.0393 6.76926 25.3824 6.76926 27.0334C6.76926 27.3929 7.06064 27.6843 7.42017 27.6843H15.8622C15.8182 27.9821 15.795 28.2862 15.795 28.5957C15.795 28.9052 15.8182 29.2094 15.8622 29.5071H2.38644C1.78824 29.5071 1.30182 29.0204 1.30182 28.4221V14.0538C1.30182 13.6943 1.01044 13.4029 0.650909 13.4029C0.291382 13.4029 0 13.6943 0 14.0538V28.4221C0 29.7381 1.07053 30.8086 2.38644 30.8086H16.2043C16.4238 31.382 16.7263 31.9144 17.0965 32.3917V39.357C17.0965 39.5739 17.2046 39.7763 17.3846 39.8972C17.5645 40.018 17.7928 40.0415 17.9935 39.9596L22 38.3241L26.0065 39.9596C26.0857 39.9918 26.1693 40.0079 26.2522 40.0079C26.3798 40.0079 26.5067 39.9703 26.6154 39.8972C26.7954 39.7763 26.9035 39.5739 26.9035 39.357V37.4953C26.9035 37.1357 26.6118 36.8444 26.2526 36.8444C25.893 36.8444 25.6017 37.1357 25.6017 37.4953V38.3882L22.2461 37.0186C22.0883 36.9545 21.9117 36.9545 21.7539 37.0186L18.3983 38.3882V33.6439C19.4148 34.371 20.6579 34.8007 22 34.8007C23.3421 34.8007 24.5852 34.371 25.6017 33.6439V34.4536C25.6017 34.8131 25.893 35.1045 26.2526 35.1045C26.6118 35.1045 26.9035 34.8131 26.9035 34.4536V32.3917C27.2737 31.9144 27.5762 31.382 27.7957 30.8086H41.6136C42.9295 30.8086 44 29.7381 44 28.4221V2.38644C44 1.07053 42.9295 0 41.6136 0V0ZM22 33.4988C19.2963 33.4988 17.0965 31.2994 17.0965 28.5957C17.0965 25.892 19.2963 23.6922 22 23.6922C24.7037 23.6922 26.9035 25.892 26.9035 28.5957C26.9035 31.2994 24.7037 33.4988 22 33.4988Z" fill="#5D4F44"/>
<path d="M27.7279 8.59186C28.0875 8.59186 28.3788 8.30048 28.3788 7.94095C28.3788 7.58142 28.0875 7.29004 27.7279 7.29004H16.2721C15.9125 7.29004 15.6212 7.58142 15.6212 7.94095C15.6212 8.30048 15.9125 8.59186 16.2721 8.59186H27.7279Z" fill="#5D4F44"/>
<path d="M32.0671 10.7612H11.9329C11.5734 10.7612 11.282 11.0526 11.282 11.4121C11.282 11.7717 11.5734 12.063 11.9329 12.063H32.0671C32.4266 12.063 32.718 11.7717 32.718 11.4121C32.718 11.0526 32.4266 10.7612 32.0671 10.7612Z" fill="#5D4F44"/>
<path d="M32.0671 14.2327H11.9329C11.5734 14.2327 11.282 14.524 11.282 14.8836C11.282 15.2431 11.5734 15.5345 11.9329 15.5345H32.0671C32.4266 15.5345 32.718 15.2431 32.718 14.8836C32.718 14.524 32.4266 14.2327 32.0671 14.2327Z" fill="#5D4F44"/>
<path d="M32.0671 18.2249H28.9428C28.5833 18.2249 28.2919 18.5162 28.2919 18.8758C28.2919 19.2353 28.5833 19.5267 28.9428 19.5267H32.0671C32.4266 19.5267 32.718 19.2353 32.718 18.8758C32.718 18.5162 32.4266 18.2249 32.0671 18.2249Z" fill="#5D4F44"/>
<path d="M11.9329 18.2249C11.5734 18.2249 11.282 18.5162 11.282 18.8758C11.282 19.2353 11.5734 19.5267 11.9329 19.5267H15.0572C15.4167 19.5267 15.7081 19.2353 15.7081 18.8758C15.7081 18.5162 15.4167 18.2249 15.0572 18.2249H11.9329Z" fill="#5D4F44"/>
<path d="M22 25.1675C20.1097 25.1675 18.5719 26.7053 18.5719 28.5956C18.5719 30.4859 20.1097 32.0237 22 32.0237C23.8903 32.0237 25.4281 30.4859 25.4281 28.5956C25.4281 26.7053 23.8903 25.1675 22 25.1675ZM22 30.7219C20.8274 30.7219 19.8737 29.7678 19.8737 28.5956C19.8737 27.423 20.8274 26.4693 22 26.4693C23.1726 26.4693 24.1263 27.423 24.1263 28.5956C24.1263 29.7678 23.1726 30.7219 22 30.7219Z" fill="#5D4F44"/>
<path d="M19.7871 18.8757C19.7871 20.096 20.7798 21.0886 22 21.0886C23.2202 21.0886 24.2129 20.096 24.2129 18.8757C24.2129 17.6555 23.2202 16.6628 22 16.6628C20.7798 16.6628 19.7871 17.6555 19.7871 18.8757ZM22.9114 18.8757C22.9114 19.3783 22.5025 19.7871 22 19.7871C21.4975 19.7871 21.0886 19.3783 21.0886 18.8757C21.0886 18.3732 21.4975 17.9643 22 17.9643C22.5025 17.9643 22.9114 18.3732 22.9114 18.8757Z" fill="#5D4F44"/>
</svg>
