<svg width="31" height="31" viewBox="0 0 31 31" fill="none" xmlns="http://www.w3.org/2000/svg">
<path d="M28.1607 9.59197C28.1994 9.24341 28.1592 8.89061 28.0432 8.55966C27.9272 8.22872 27.7382 7.9281 27.4903 7.68004C27.2424 7.43199 26.9419 7.24285 26.611 7.12661C26.2801 7.01037 25.9273 6.97001 25.5788 7.00852C25.588 6.92374 25.5927 6.83853 25.5929 6.75324C25.5929 6.13176 25.346 5.53573 24.9065 5.09628C24.4671 4.65682 23.871 4.40994 23.2496 4.40993C23.1643 4.41006 23.0791 4.41477 22.9943 4.42403C23.0473 3.94176 22.9492 3.45493 22.7136 3.0308C22.478 2.60668 22.1165 2.26619 21.679 2.0564C21.2415 1.8466 20.7497 1.77785 20.2714 1.85964C19.7932 1.94144 19.3522 2.16973 19.0093 2.51299L17.2421 4.28017C16.9789 3.92969 16.6914 3.59814 16.3817 3.28798L14.3151 1.22135C13.533 0.439333 12.4724 0 11.3665 0C10.2605 0 9.19986 0.439333 8.41784 1.22135C8.36986 1.26932 8.3318 1.32628 8.30584 1.38896C8.27987 1.45164 8.2665 1.51883 8.2665 1.58668C8.2665 1.65452 8.27987 1.72171 8.30584 1.78439C8.3318 1.84707 8.36986 1.90403 8.41784 1.952L9.16669 2.70085C10.1289 3.66554 10.8198 4.86694 11.1695 6.18386C11.5192 7.50078 11.5155 8.88663 11.1586 10.2016C10.9537 10.9532 10.8498 11.7287 10.8498 12.5077V15.839L9.81648 16.8724L9.66515 16.721C9.56826 16.6242 9.43685 16.5697 9.29982 16.5697C9.1628 16.5697 9.03139 16.6242 8.9345 16.721L7.2332 18.4223L7.08186 18.271C6.98497 18.1741 6.85356 18.1197 6.71654 18.1197C6.57952 18.1197 6.44811 18.1741 6.35122 18.271L0.151337 24.4709L0.881985 25.2015L6.71654 19.367L15.2857 27.9362L13.0678 30.1541L13.7984 30.8848L16.3817 28.3015C16.4297 28.2535 16.4677 28.1966 16.4937 28.1339C16.5197 28.0712 16.533 28.004 16.533 27.9362C16.533 27.8683 16.5197 27.8011 16.4937 27.7384C16.4677 27.6758 16.4297 27.6188 16.3817 27.5708L15.7137 26.9028L17.415 25.2015C17.463 25.1536 17.501 25.0966 17.527 25.0339C17.553 24.9713 17.5663 24.9041 17.5663 24.8362C17.5663 24.7684 17.553 24.7012 17.527 24.6385C17.501 24.5758 17.463 24.5189 17.415 24.4709L16.2304 23.2862L17.2637 22.2529H21.1829C21.2508 22.2529 21.318 22.2396 21.3806 22.2136C21.4433 22.1876 21.5003 22.1496 21.5483 22.1016L26.7148 16.935L26.6946 16.9148C26.7935 16.8428 26.8866 16.7632 26.9731 16.6767L30.0731 13.5768C30.4164 13.2338 30.6448 12.7927 30.7265 12.3143C30.8082 11.8359 30.7394 11.344 30.5294 10.9065C30.3194 10.469 29.9787 10.1075 29.5544 9.87199C29.13 9.63651 28.643 9.53866 28.1607 9.59197ZM25.8328 8.02713C26.0919 8.02696 26.3453 8.10366 26.5608 8.24752C26.7762 8.39139 26.9442 8.59595 27.0434 8.83532C27.1426 9.07469 27.1685 9.3381 27.1179 9.59221C27.0673 9.84632 26.9425 10.0797 26.7592 10.2628L23.6592 13.3628C23.4135 13.6085 23.0803 13.7465 22.7329 13.7465C22.3855 13.7465 22.0523 13.6085 21.8066 13.3628C21.5609 13.1171 21.4229 12.7839 21.4229 12.4365C21.4229 12.089 21.5609 11.7558 21.8066 11.5101L24.9065 8.41021C25.0281 8.2885 25.1725 8.192 25.3315 8.12626C25.4904 8.06052 25.6608 8.02683 25.8328 8.02713ZM24.1759 5.82692C24.4212 6.07279 24.5589 6.40593 24.5589 6.75324C24.5589 7.10055 24.4212 7.43369 24.1759 7.67956L21.0759 10.7795C20.8303 11.0252 20.497 11.1632 20.1496 11.1632C19.8022 11.1632 19.469 11.0252 19.2233 10.7795C18.9776 10.5338 18.8396 10.2006 18.8396 9.85318C18.8396 9.50574 18.9776 9.17254 19.2233 8.92686L22.3232 5.82692C22.5691 5.58163 22.9022 5.44388 23.2496 5.44388C23.5969 5.44388 23.93 5.58163 24.1759 5.82692ZM19.74 3.24364C19.9856 2.99797 20.3188 2.85995 20.6663 2.85995C21.0137 2.85995 21.3469 2.99797 21.5926 3.24364C21.8383 3.48932 21.9763 3.82252 21.9763 4.16996C21.9763 4.51739 21.8383 4.8506 21.5926 5.09628L18.4926 8.19621C18.371 8.31786 18.2266 8.41435 18.0676 8.48019C17.9087 8.54602 17.7384 8.57991 17.5663 8.57991C17.3943 8.57991 17.2239 8.54602 17.065 8.48019C16.9061 8.41435 16.7617 8.31786 16.64 8.19621C16.5184 8.07457 16.4219 7.93015 16.356 7.77122C16.2902 7.61228 16.2563 7.44193 16.2563 7.2699C16.2563 7.09786 16.2902 6.92752 16.356 6.76858C16.4219 6.60964 16.5184 6.46523 16.64 6.34358L19.74 3.24364ZM14.983 26.1722L7.96384 19.153L9.29982 17.817L16.319 24.8362L14.983 26.1722ZM20.9689 21.2196H17.0497C16.9818 21.2196 16.9146 21.233 16.852 21.2589C16.7893 21.2849 16.7323 21.323 16.6843 21.371L15.4997 22.5556L10.5471 17.603L11.7318 16.4184C11.7798 16.3704 11.8178 16.3135 11.8438 16.2508C11.8697 16.1881 11.8831 16.1209 11.8831 16.0531V12.5077C11.8831 11.8205 11.9747 11.1364 12.1555 10.4735C12.5601 8.98273 12.5643 7.41165 12.1679 5.91872C11.7714 4.42579 10.9882 3.06382 9.89734 1.97019L9.5439 1.61676C10.1485 1.18646 10.8859 0.984055 11.6255 1.04542C12.365 1.10678 13.059 1.42794 13.5844 1.952L15.651 4.01863C15.9612 4.32896 16.2463 4.66334 16.5037 5.01864L15.9094 5.61293C15.5657 5.95568 15.3371 6.39674 15.2551 6.87512C15.1731 7.35349 15.2417 7.84553 15.4516 8.28316C15.6615 8.72079 16.0022 9.08239 16.4266 9.31792C16.8509 9.55346 17.338 9.65129 17.8204 9.59789C17.8111 9.68267 17.8064 9.76789 17.8063 9.85318C17.8055 10.2393 17.9005 10.6196 18.083 10.96V11.3664C18.086 12.4573 17.8726 13.5379 17.4551 14.5457C17.0377 15.5535 16.4245 16.4685 15.651 17.2377L16.3817 17.9684C17.9958 16.3632 18.9627 14.2201 19.0979 11.9478C19.4242 12.1119 19.7844 12.1971 20.1496 12.1965C20.2349 12.1964 20.3201 12.1917 20.4049 12.1824C20.3663 12.531 20.4065 12.8838 20.5227 13.2148C20.6389 13.5457 20.8281 13.8462 21.0761 14.0942C21.3242 14.3421 21.6249 14.5311 21.9559 14.6471C22.2869 14.7631 22.6398 14.8031 22.9883 14.7643C22.9234 15.3486 23.0809 15.9359 23.4294 16.4094C23.778 16.8829 24.292 17.2077 24.8693 17.3193L20.9689 21.2196ZM29.3424 12.8461L26.2425 15.9461C25.9968 16.1917 25.6636 16.3298 25.3162 16.3298C24.9687 16.3298 24.6355 16.1917 24.3899 15.9461C24.1442 15.7004 24.0062 15.3672 24.0062 15.0197C24.0062 14.6723 24.1442 14.3391 24.3899 14.0934L27.4898 10.9935C27.7355 10.7478 28.0687 10.6098 28.4161 10.6098C28.7636 10.6098 29.0968 10.7478 29.3424 10.9935C29.5881 11.2392 29.7261 11.5724 29.7261 11.9198C29.7261 12.2672 29.5881 12.6004 29.3424 12.8461Z" fill="#5D4F44"/>
<path d="M29.4494 24.8362C28.7645 24.8354 28.1079 24.563 27.6236 24.0787C27.1393 23.5944 26.8669 22.9378 26.8661 22.2529C26.8661 22.1159 26.8117 21.9845 26.7148 21.8876C26.6179 21.7907 26.4865 21.7363 26.3495 21.7363C26.2124 21.7363 26.081 21.7907 25.9841 21.8876C25.8873 21.9845 25.8328 22.1159 25.8328 22.2529C25.832 22.9378 25.5596 23.5944 25.0753 24.0787C24.591 24.563 23.9344 24.8354 23.2495 24.8362C23.1125 24.8362 22.9811 24.8906 22.8842 24.9875C22.7873 25.0844 22.7329 25.2158 22.7329 25.3529C22.7329 25.4899 22.7873 25.6213 22.8842 25.7182C22.9811 25.8151 23.1125 25.8695 23.2495 25.8695C23.9344 25.8703 24.591 26.1427 25.0753 26.627C25.5596 27.1113 25.832 27.7679 25.8328 28.4528C25.8328 28.5898 25.8873 28.7212 25.9841 28.8181C26.081 28.915 26.2124 28.9695 26.3495 28.9695C26.4865 28.9695 26.6179 28.915 26.7148 28.8181C26.8117 28.7212 26.8661 28.5898 26.8661 28.4528C26.8669 27.7679 27.1393 27.1113 27.6236 26.627C28.1079 26.1427 28.7645 25.8703 29.4494 25.8695C29.5864 25.8695 29.7179 25.8151 29.8147 25.7182C29.9116 25.6213 29.9661 25.4899 29.9661 25.3529C29.9661 25.2158 29.9116 25.0844 29.8147 24.9875C29.7179 24.8906 29.5864 24.8362 29.4494 24.8362ZM26.3495 26.5916C26.0434 26.0841 25.6182 25.659 25.1108 25.3529C25.6182 25.0468 26.0434 24.6216 26.3495 24.1142C26.6556 24.6216 27.0807 25.0468 27.5882 25.3529C27.0807 25.659 26.6556 26.0841 26.3495 26.5916Z" fill="#5D4F44"/>
<path d="M30.4827 2.61997C29.9348 2.61935 29.4095 2.40142 29.0221 2.01398C28.6346 1.62655 28.4167 1.10125 28.4161 0.553339C28.4161 0.416313 28.3617 0.284899 28.2648 0.188007C28.1679 0.0911154 28.0365 0.0366821 27.8994 0.0366821C27.7624 0.0366821 27.631 0.0911154 27.5341 0.188007C27.4372 0.284899 27.3828 0.416313 27.3828 0.553339C27.3822 1.10125 27.1642 1.62655 26.7768 2.01398C26.3894 2.40142 25.8641 2.61935 25.3162 2.61997C25.1791 2.61997 25.0477 2.6744 24.9508 2.77129C24.8539 2.86818 24.7995 2.9996 24.7995 3.13662C24.7995 3.27365 24.8539 3.40506 24.9508 3.50195C25.0477 3.59884 25.1791 3.65328 25.3162 3.65328C25.8641 3.65389 26.3894 3.87182 26.7768 4.25926C27.1642 4.64669 27.3822 5.17199 27.3828 5.7199C27.3828 5.85693 27.4372 5.98834 27.5341 6.08524C27.631 6.18213 27.7624 6.23656 27.8994 6.23656C28.0365 6.23656 28.1679 6.18213 28.2648 6.08524C28.3617 5.98834 28.4161 5.85693 28.4161 5.7199C28.4167 5.17199 28.6346 4.64669 29.0221 4.25926C29.4095 3.87182 29.9348 3.65389 30.4827 3.65328C30.6197 3.65328 30.7512 3.59884 30.8481 3.50195C30.9449 3.40506 30.9994 3.27365 30.9994 3.13662C30.9994 2.9996 30.9449 2.86818 30.8481 2.77129C30.7512 2.6744 30.6197 2.61997 30.4827 2.61997ZM27.8994 4.00801C27.6697 3.66259 27.3735 3.36637 27.0281 3.13662C27.3735 2.90687 27.6697 2.61065 27.8994 2.26524C28.1292 2.61065 28.4254 2.90687 28.7708 3.13662C28.4254 3.36637 28.1292 3.66259 27.8994 4.00801Z" fill="#5D4F44"/>
<path d="M3.09994 12.9531C3.09994 13.0901 3.15437 13.2215 3.25126 13.3184C3.34816 13.4153 3.47957 13.4698 3.6166 13.4698C3.75362 13.4698 3.88504 13.4153 3.98193 13.3184C4.07882 13.2215 4.13325 13.0901 4.13325 12.9531C4.13403 12.2682 4.40644 11.6116 4.89073 11.1273C5.37502 10.643 6.03164 10.3706 6.71654 10.3698C6.85356 10.3698 6.98497 10.3154 7.08187 10.2185C7.17876 10.1216 7.23319 9.99019 7.23319 9.85317C7.23319 9.71614 7.17876 9.58473 7.08187 9.48784C6.98497 9.39094 6.85356 9.33651 6.71654 9.33651C6.03164 9.33574 5.37502 9.06332 4.89073 8.57903C4.40644 8.09474 4.13403 7.43812 4.13325 6.75323C4.13325 6.6162 4.07882 6.48479 3.98193 6.3879C3.88504 6.29101 3.75362 6.23657 3.6166 6.23657C3.47957 6.23657 3.34816 6.29101 3.25126 6.3879C3.15437 6.48479 3.09994 6.6162 3.09994 6.75323C3.09917 7.43812 2.82675 8.09474 2.34246 8.57903C1.85817 9.06332 1.20155 9.33574 0.516657 9.33651C0.379631 9.33651 0.248217 9.39094 0.151325 9.48784C0.0544333 9.58473 0 9.71614 0 9.85317C0 9.99019 0.0544333 10.1216 0.151325 10.2185C0.248217 10.3154 0.379631 10.3698 0.516657 10.3698C1.20155 10.3706 1.85817 10.643 2.34246 11.1273C2.82675 11.6116 3.09917 12.2682 3.09994 12.9531ZM3.6166 8.61447C3.92268 9.12191 4.34786 9.54708 4.85529 9.85317C4.34786 10.1593 3.92268 10.5844 3.6166 11.0919C3.31051 10.5844 2.88534 10.1593 2.3779 9.85317C2.88534 9.54708 3.31051 9.12191 3.6166 8.61447Z" fill="#5D4F44"/>
</svg>
