<svg width="14" height="14" viewBox="0 0 14 14" fill="none" xmlns="http://www.w3.org/2000/svg">
<path d="M13.7071 1.70711C14.0976 1.31658 14.0976 0.683417 13.7071 0.292893C13.3166 -0.0976311 12.6834 -0.0976311 12.2929 0.292893L13.7071 1.70711ZM0.292893 12.2929C-0.0976311 12.6834 -0.0976311 13.3166 0.292893 13.7071C0.683417 14.0976 1.31658 14.0976 1.70711 13.7071L0.292893 12.2929ZM1.70711 0.292893C1.31658 -0.0976311 0.683417 -0.0976311 0.292893 0.292893C-0.0976311 0.683417 -0.0976311 1.31658 0.292893 1.70711L1.70711 0.292893ZM12.2929 13.7071C12.6834 14.0976 13.3166 14.0976 13.7071 13.7071C14.0976 13.3166 14.0976 12.6834 13.7071 12.2929L12.2929 13.7071ZM12.2929 0.292893L6.29289 6.29289L7.70711 7.70711L13.7071 1.70711L12.2929 0.292893ZM6.29289 6.29289L0.292893 12.2929L1.70711 13.7071L7.70711 7.70711L6.29289 6.29289ZM7.70711 6.29289L1.70711 0.292893L0.292893 1.70711L6.29289 7.70711L7.70711 6.29289ZM0.292893 1.70711L12.2929 13.7071L13.7071 12.2929L1.70711 0.292893L0.292893 1.70711Z" fill="#F7F2EF"/>
</svg>
