<svg width="17" height="16" viewBox="0 0 17 16" fill="none" xmlns="http://www.w3.org/2000/svg">
<path fill-rule="evenodd" clip-rule="evenodd" d="M15.9843 4.70404C15.9468 3.8539 15.8094 3.26944 15.6124 2.76299C15.4093 2.22541 15.0967 1.74412 14.6872 1.34401C14.2871 0.937684 13.8026 0.621948 13.2713 0.421958C12.7619 0.22502 12.1805 0.0875421 11.3303 0.0500592C10.4739 0.00940184 10.202 0 8.02966 0C5.85736 0 5.58546 0.00940184 4.73214 0.0468848C3.882 0.0843677 3.29754 0.221968 2.79122 0.418784C2.25351 0.621948 1.77222 0.934509 1.37212 1.34401C0.965788 1.74412 0.650175 2.22859 0.450063 2.75994C0.253126 3.26944 0.115648 3.85073 0.0781651 4.70087C0.0375079 5.55736 0.0281066 5.82926 0.0281066 8.00156C0.0281066 10.1739 0.0375079 10.4458 0.0749907 11.2991C0.112474 12.1492 0.250073 12.7337 0.447011 13.2401C0.650175 13.7777 0.965788 14.259 1.37212 14.6591C1.77222 15.0654 2.25669 15.3812 2.78804 15.5812C3.29754 15.7781 3.87883 15.9156 4.72909 15.9531C5.58228 15.9907 5.85431 16 8.02661 16C10.1989 16 10.4708 15.9907 11.3241 15.9531C12.1743 15.9156 12.7587 15.7781 13.265 15.5812C14.3403 15.1654 15.1905 14.3153 15.6062 13.2401C15.803 12.7306 15.9406 12.1492 15.9781 11.2991C16.0156 10.4458 16.025 10.1739 16.025 8.00156C16.025 5.82926 16.0218 5.55736 15.9843 4.70404ZM14.5435 11.2366C14.5091 12.018 14.3778 12.4399 14.2684 12.7212C13.9996 13.4183 13.4464 13.9715 12.7493 14.2403C12.468 14.3497 12.043 14.481 11.2647 14.5153C10.4207 14.5529 10.1676 14.5622 8.03283 14.5622C5.89802 14.5622 5.64174 14.5529 4.80088 14.5153C4.01948 14.481 3.59752 14.3497 3.31622 14.2403C2.96935 14.1121 2.65362 13.909 2.39734 13.6433C2.13166 13.3838 1.9285 13.0713 1.8003 12.7244C1.6909 12.4431 1.55965 12.018 1.52535 11.2397C1.48774 10.3958 1.47846 10.1426 1.47846 8.00779C1.47846 5.87297 1.48774 5.6167 1.52535 4.77596C1.55965 3.99456 1.6909 3.5726 1.8003 3.29129C1.9285 2.9443 2.13166 2.62869 2.40051 2.37229C2.65984 2.10661 2.9724 1.90345 3.31939 1.77537C3.6007 1.66598 4.02583 1.53472 4.80406 1.50029C5.64797 1.46281 5.90119 1.45341 8.03588 1.45341C10.1739 1.45341 10.427 1.46281 11.2678 1.50029C12.0492 1.53472 12.4712 1.66598 12.7525 1.77537C13.0994 1.90345 13.4151 2.10661 13.6714 2.37229C13.9371 2.63174 14.1402 2.9443 14.2684 3.29129C14.3778 3.5726 14.5091 3.99761 14.5435 4.77596C14.581 5.61987 14.5904 5.87297 14.5904 8.00779C14.5904 10.1426 14.581 10.3927 14.5435 11.2366ZM8.02967 3.89139C5.76055 3.89139 3.91949 5.73232 3.91949 8.00157C3.91949 10.2708 5.76055 12.1118 8.02967 12.1118C10.2989 12.1118 12.1398 10.2708 12.1398 8.00157C12.1398 5.73232 10.2989 3.89139 8.02967 3.89139ZM8.02967 10.6677C6.55758 10.6677 5.3635 9.47378 5.3635 8.00157C5.3635 6.52936 6.55758 5.3354 8.02967 5.3354C9.50188 5.3354 10.6958 6.52936 10.6958 8.00157C10.6958 9.47378 9.50188 10.6677 8.02967 10.6677ZM12.3023 4.68842C12.8324 4.68842 13.262 4.25877 13.262 3.72888C13.262 3.19887 12.8324 2.76934 12.3023 2.76934C11.7725 2.76934 11.3428 3.19887 11.3428 3.72888C11.3428 4.25877 11.7725 4.68842 12.3023 4.68842Z" fill="#5D4F44"/>
</svg>
