<svg width="35" height="36" viewBox="0 0 35 36" fill="none" xmlns="http://www.w3.org/2000/svg">
<path d="M25.7008 27.9837V22.3249C25.7007 21.4768 25.0107 20.7867 24.1626 20.7867H4.32371C3.47557 20.7867 2.78548 21.4768 2.78548 22.3249V27.9837C2.1501 28.1997 1.69146 28.8017 1.69146 29.5093C1.69146 30.3978 2.41432 31.1206 3.30268 31.1206H25.1835C26.072 31.1206 26.7948 30.3977 26.7948 29.5093C26.7948 28.8017 26.3362 28.1997 25.7008 27.9837ZM3.81996 22.3248C3.81996 22.0471 4.04589 21.8212 4.32371 21.8212H24.1626C24.4403 21.8212 24.6663 22.0471 24.6663 22.3248V27.898H3.81996V22.3248ZM25.1835 30.0861H3.30275C2.98479 30.0861 2.72601 29.8273 2.72601 29.5093C2.72601 29.1913 2.98479 28.9325 3.30275 28.9325H25.1836C25.5016 28.9325 25.7604 29.1913 25.7604 29.5093C25.7603 29.8273 25.5016 30.0861 25.1835 30.0861Z" fill="#5D4F44"/>
<path d="M26.7255 22.7701H26.2759V23.8046H26.7255C27.3104 23.8046 27.3104 23.9445 27.3104 24.138V31.0512C27.3104 31.5226 26.9933 32.0805 26.7255 32.0805H1.76079C1.45531 32.0805 1.03448 31.4841 1.03448 31.0512V24.1381C1.03448 24.0299 1.03448 23.8047 1.76079 23.8047H2.20693V22.7702H1.76079C1.3007 22.7702 0.922166 22.8531 0.635658 23.0164C0.22573 23.2502 0 23.6486 0 24.1383V31.0514C0 31.486 0.178818 31.9836 0.478364 32.3824C0.828066 32.8481 1.2956 33.1151 1.76086 33.1151H2.207V35.3219H3.24148V33.115H25.7243V35.3219H26.7588V33.1138C27.7804 33.088 28.3451 31.8856 28.3451 31.0512V24.1381C28.3449 23.6272 28.1344 22.7701 26.7255 22.7701Z" fill="#5D4F44"/>
<path d="M6.62044 23.8738H5.51698V24.9083H6.62044V23.8738Z" fill="#5D4F44"/>
<path d="M23.0343 23.8738H21.8619V24.9083H23.0343V23.8738Z" fill="#5D4F44"/>
<path d="M14.8274 23.8738H13.7239V24.9083H14.8274V23.8738Z" fill="#5D4F44"/>
<path d="M0.050354 11.9748H16.9484V0H0.050354V11.9748ZM1.08483 1.03448H15.9139V10.9404H1.08483V1.03448Z" fill="#5D4F44"/>
<path d="M1.69146 1.64105V10.3338H15.3074V1.64105H1.69146ZM14.2729 9.29936H2.72594V2.67553H14.2728V9.29936H14.2729Z" fill="#5D4F44"/>
<path d="M17.555 12.0344V19.6331H27.3418V12.0344H17.555ZM26.3074 18.5986H18.5895V13.0689H26.3074V18.5986Z" fill="#5D4F44"/>
<path d="M19.196 13.6754V17.992H25.7007V13.6754H19.196ZM24.6663 16.9575H20.2305V14.71H24.6663V16.9575Z" fill="#5D4F44"/>
<path d="M22.4484 2.18811C20.0518 2.18811 18.1021 4.13786 18.1021 6.53444C18.1021 8.93109 20.0519 10.8808 22.4484 10.8808C24.845 10.8808 26.7948 8.93095 26.7948 6.53444C26.7948 4.13786 24.8451 2.18811 22.4484 2.18811ZM22.9656 9.80579V9.25299H21.9311V9.80572C20.5397 9.58648 19.4341 8.49764 19.1885 7.11504H19.7932V6.0805H19.1684C19.3672 4.63809 20.4975 3.48909 21.9311 3.26322V4.01147H22.9656V3.26329C24.3993 3.48909 25.5297 4.63816 25.7284 6.08057H25.0345V7.11504H25.7083C25.4627 8.49771 24.3571 9.58662 22.9656 9.80579Z" fill="#5D4F44"/>
<path d="M21.9311 4.83911V6.08049H20.2069V7.11497H22.9656V4.83911H21.9311Z" fill="#5D4F44"/>
<path d="M32.2759 32.6143V32.6143V20.4254H31.2415V32.6143H28.4954V35.2898H35V32.6143H32.2759V32.6143ZM33.9656 34.2553H29.5299V33.6488H33.9656V34.2553Z" fill="#5D4F44"/>
<path d="M29.5894 7.11121V19.0861H31.2414V19.9425H32.2759V19.0861H33.906V7.11121H29.5894ZM32.8716 16.4253H31.2415V17.4598H32.8716V18.0516H30.6239V8.14568H32.8716V16.4253Z" fill="#5D4F44"/>
<path d="M7.31297 3.98079L6.21899 5.07477L6.95048 5.80625L8.04446 4.71227L7.31297 3.98079Z" fill="#5D4F44"/>
<path d="M10.048 3.43364L6.21896 7.2627L6.95044 7.99417L10.7795 4.16512L10.048 3.43364Z" fill="#5D4F44"/>
<path d="M10.0478 6.16908L8.95385 7.26306L9.68533 7.99454L10.7793 6.90057L10.0478 6.16908Z" fill="#5D4F44"/>
</svg>
