<svg width="14" height="13" viewBox="0 0 14 13" fill="none" xmlns="http://www.w3.org/2000/svg">
<path fill-rule="evenodd" clip-rule="evenodd" d="M6.78004 0C7.39746 0 7.89798 0.500516 7.89798 1.11793V4.07048C7.89798 4.6879 7.39746 5.18841 6.78004 5.18841C6.16263 5.18841 5.66211 4.6879 5.66211 4.07048V1.11793C5.66211 0.500516 6.16263 0 6.78004 0Z" fill="#00A0FF"/>
<path fill-rule="evenodd" clip-rule="evenodd" d="M13.2177 4.70936C13.407 5.29705 13.0849 5.92936 12.4981 6.12167L9.71458 7.03405C9.12788 7.22636 8.49881 6.90584 8.30952 6.31816C8.12024 5.73047 8.44241 5.09816 9.02911 4.90585L11.8127 3.99347C12.3994 3.80116 13.0284 4.12168 13.2177 4.70936Z" fill="#00A0FF"/>
<path fill-rule="evenodd" clip-rule="evenodd" d="M10.7565 12.3391C10.2585 12.7041 9.56233 12.5938 9.2015 12.0928L7.48116 9.70415C7.12033 9.20315 7.23152 8.50112 7.7295 8.13613C8.22749 7.77114 8.9237 7.88141 9.28453 8.38241L11.0049 10.7711C11.3657 11.2721 11.2545 11.9741 10.7565 12.3391Z" fill="#00A0FF"/>
<path fill-rule="evenodd" clip-rule="evenodd" d="M2.80535 12.3391C2.30737 11.9741 2.19618 11.2721 2.55701 10.7711L4.27735 8.38245C4.63818 7.88145 5.33438 7.77118 5.83237 8.13617C6.33035 8.50116 6.44154 9.20318 6.08071 9.70419L4.36037 12.0928C3.99954 12.5939 3.30333 12.7041 2.80535 12.3391Z" fill="#00A0FF"/>
<path fill-rule="evenodd" clip-rule="evenodd" d="M0.342734 4.70934C0.532021 4.12165 1.16109 3.80113 1.74779 3.99344L4.53136 4.90583C5.11806 5.09813 5.44023 5.73044 5.25094 6.31813C5.06166 6.90582 4.43259 7.22634 3.84589 7.03403L1.06232 6.12164C0.475618 5.92933 0.153447 5.29702 0.342734 4.70934Z" fill="#00A0FF"/>
</svg>
