<svg width="53" height="52" viewBox="0 0 53 52" fill="none" xmlns="http://www.w3.org/2000/svg">
<path d="M35.9531 33.5156V18.9062C35.9531 16.3991 34.9572 13.9947 33.1844 12.2219C31.4116 10.4491 29.0071 9.45313 26.5 9.45312C23.9929 9.45313 21.5884 10.4491 19.8156 12.2219C18.0428 13.9947 17.0469 16.3991 17.0469 18.9062V33.5156C16.3637 33.5177 15.7092 33.7899 15.2261 34.273C14.7431 34.756 14.4708 35.4106 14.4688 36.0938V37.8125C14.4708 38.4956 14.7431 39.1502 15.2261 39.6333C15.7092 40.1163 16.3637 40.3886 17.0469 40.3906H22.2031V48.125H23.9219V40.3906H29.0781V51.5625H30.7969V40.3906H35.9531C36.6363 40.3886 37.2908 40.1163 37.7739 39.6333C38.2569 39.1502 38.5292 38.4956 38.5312 37.8125V36.0938C38.5292 35.4106 38.2569 34.756 37.7739 34.273C37.2908 33.7899 36.6363 33.5177 35.9531 33.5156ZM18.7656 18.9062C18.7656 16.855 19.5805 14.8877 21.031 13.4372C22.4814 11.9867 24.4487 11.1719 26.5 11.1719C28.5513 11.1719 30.5186 11.9867 31.969 13.4372C33.4195 14.8877 34.2344 16.855 34.2344 18.9062V33.5156H30.7969V26.6406C30.7969 26.4127 30.7063 26.1941 30.5452 26.033C30.384 25.8718 30.1654 25.7812 29.9375 25.7812H27.3594C27.1315 25.7829 26.9131 25.8722 26.7492 26.0305L25.8727 26.907L25.5461 26.2539C25.4765 26.1107 25.3677 25.9903 25.2323 25.9066C25.0969 25.8229 24.9404 25.7794 24.7812 25.7812H23.0625C22.8346 25.7812 22.616 25.8718 22.4548 26.033C22.2937 26.1941 22.2031 26.4127 22.2031 26.6406V33.5156H18.7656V18.9062ZM29.0781 27.5V33.5156H23.9219V27.5H24.2484L24.8758 28.7461C24.9363 28.8675 25.0247 28.9728 25.1337 29.0534C25.2428 29.1341 25.3694 29.1878 25.5031 29.2102C25.6379 29.2302 25.7754 29.2189 25.905 29.1771C26.0347 29.1354 26.153 29.0644 26.2508 28.9695L27.7117 27.5H29.0781ZM36.8125 37.8125C36.8125 38.0404 36.722 38.259 36.5608 38.4202C36.3996 38.5813 36.181 38.6719 35.9531 38.6719H17.0469C16.819 38.6719 16.6004 38.5813 16.4392 38.4202C16.278 38.259 16.1875 38.0404 16.1875 37.8125V36.0938C16.1875 35.8658 16.278 35.6472 16.4392 35.4861C16.6004 35.3249 16.819 35.2344 17.0469 35.2344H35.9531C36.181 35.2344 36.3996 35.3249 36.5608 35.4861C36.722 35.6472 36.8125 35.8658 36.8125 36.0938V37.8125Z" fill="#5D4F44"/>
<path d="M26.5 13.75V12.0312C24.6773 12.0333 22.9298 12.7583 21.6409 14.0472C20.352 15.336 19.627 17.0835 19.625 18.9062H21.3438C21.3451 17.5391 21.8888 16.2284 22.8555 15.2617C23.8222 14.295 25.1329 13.7514 26.5 13.75Z" fill="#5D4F44"/>
<path d="M25.6406 0H27.3594V5.15625H25.6406V0Z" fill="#5D4F44"/>
<path d="M7.65985 8.15991L8.87519 6.94457L12.5212 10.5906L11.3059 11.8059L7.65985 8.15991Z" fill="#5D4F44"/>
<path d="M0.71875 24.9219H5.875V26.6406H0.71875V24.9219Z" fill="#5D4F44"/>
<path d="M47.125 24.9219H52.2812V26.6406H47.125V24.9219Z" fill="#5D4F44"/>
<path d="M40.4709 10.5925L44.1169 6.94651L45.3322 8.16185L41.6862 11.8079L40.4709 10.5925Z" fill="#5D4F44"/>
</svg>
