<svg width="28" height="28" viewBox="0 0 28 28" fill="none" xmlns="http://www.w3.org/2000/svg">
<circle cx="14" cy="14" r="14" fill="#E5E5E5"/>
<path d="M13.7038 6C9.59272 6 7.40637 8.63449 7.40637 11.5071C7.40637 12.8394 8.15078 14.5007 9.3424 15.0276C9.52334 15.1092 9.62178 15.0745 9.6621 14.9066C9.69773 14.7791 9.85429 14.1651 9.93024 13.8754C9.95367 13.7825 9.94149 13.7019 9.86648 13.6147C9.47084 13.1572 9.15676 12.3237 9.15676 11.5418C9.15676 9.53828 10.7496 7.59288 13.4601 7.59288C15.8039 7.59288 17.4437 9.11545 17.4437 11.2934C17.4437 13.7544 16.1415 15.457 14.4492 15.457C13.5126 15.457 12.8151 14.722 13.0363 13.8125C13.3035 12.7297 13.8276 11.5652 13.8276 10.7843C13.8276 10.0839 13.432 9.50453 12.6238 9.50453C11.6703 9.50453 10.8968 10.4486 10.8968 11.7162C10.8968 12.5215 11.1819 13.0653 11.1819 13.0653C11.1819 13.0653 10.2387 16.8755 10.0634 17.5871C9.7671 18.7918 10.1037 20.7428 10.1327 20.9107C10.1506 21.0035 10.2546 21.0325 10.3128 20.9566C10.4056 20.8347 11.5456 19.2081 11.8653 18.0324C11.9816 17.604 12.4588 15.8667 12.4588 15.8667C12.7729 16.4339 13.6795 16.9092 14.6451 16.9092C17.5178 16.9092 19.5935 14.3844 19.5935 11.2512C19.5832 8.24729 17.0124 6 13.7038 6Z" fill="#5D4F44"/>
</svg>
