<svg width="78" height="22" viewBox="0 0 78 22" fill="none" xmlns="http://www.w3.org/2000/svg">
<path fill-rule="evenodd" clip-rule="evenodd" d="M20.5485 8.76299V14.4119C20.5485 18.0571 17.6467 21.0264 14.0843 21.0264H6.48776C2.9018 21.0264 0 18.0571 0 14.4119V8.76299H4.52964V14.4119C4.52964 16.1259 5.89796 17.526 7.57298 17.526H12.9755C14.6505 17.526 16.0189 16.1259 16.0189 14.4119V8.76299H20.5485ZM8.79976 7.00073H11.7723C12.2442 7.00073 12.6452 7.38698 12.6452 7.89393V13.1324C12.6452 13.6152 12.2678 14.0256 11.7723 14.0256C10.7815 14.0256 9.79062 14.0256 8.79976 14.0256C8.32792 14.0256 7.92686 13.6394 7.92686 13.1324C7.92686 11.3943 7.92686 9.63205 7.92686 7.89393C7.92686 7.41112 8.32792 7.00073 8.79976 7.00073Z" fill="#696969"/>
<path fill-rule="evenodd" clip-rule="evenodd" d="M16.0424 0.313827C18.2364 1.03804 19.935 2.92101 20.4305 5.26265H16.0424V0.313827ZM6.48769 0H12.6452V3.50038H7.57291C6.36973 3.50038 5.33169 4.2246 4.83626 5.26265H0.141479C0.754868 2.26921 3.37356 0 6.48769 0Z" fill="#C6C6C6"/>
<path d="M65.1371 10.477V7.02494H67.1424V10.5012C67.1424 12.1427 67.4019 12.3117 68.6523 12.3117H69.9262V14.0016H68.4163C66.1987 14.0016 65.1371 13.1808 65.1371 10.477ZM60.4423 11.2495C60.5367 12.2152 60.8905 12.3117 61.9286 12.3117H63.9575V14.0016H61.6927C59.4986 14.0016 58.4134 13.1808 58.4134 10.4529C58.4134 7.72502 59.475 7.0008 61.6927 7.0008H63.9575V8.69064H61.9286C60.9613 8.69064 60.5838 8.76306 60.4659 9.58384H63.2497V11.2254H60.4423V11.2495ZM50.9584 7.02494V14.0016H54.0489C56.2429 14.0016 57.3282 13.1808 57.3282 10.4529C57.3282 7.72502 56.2665 7.0008 54.0489 7.0008H50.9584V7.02494ZM55.3465 10.5012C55.3465 12.1427 55.0869 12.3117 53.8366 12.3117H52.8693V8.71478H53.8366C55.0634 8.71478 55.3465 8.83548 55.3465 10.5012ZM74.1492 6.85596C76.3432 6.85596 77.5464 7.60431 77.5464 10.4288C77.5464 13.3015 76.3668 14.1464 74.1492 14.1464C71.9315 14.1464 70.7519 13.3015 70.7519 10.4288C70.7519 7.60431 71.9315 6.85596 74.1492 6.85596ZM74.1492 12.3841C75.3995 12.3841 75.5411 12.2152 75.5411 10.4288C75.5411 8.76306 75.3995 8.61822 74.1492 8.61822C72.8752 8.61822 72.7572 8.76306 72.7572 10.4288C72.7336 12.2152 72.8752 12.3841 74.1492 12.3841Z" fill="#C6C6C6"/>
<path d="M39.2095 11.2495C39.3039 12.2151 39.6578 12.3117 40.6958 12.3117H42.7247V14.0015H40.4599C38.2658 14.0015 37.1806 13.1807 37.1806 10.4528C37.1806 7.72495 38.2422 7.00073 40.4599 7.00073H42.7247V8.69057H40.6958C39.7285 8.69057 39.3511 8.76299 39.2331 9.58377H42.0169V11.2253H39.2095V11.2495ZM30.5985 14.0015C28.4044 14.0015 27.3192 13.1807 27.3192 10.4528V7.02487H29.3245V10.5011C29.3245 12.1185 29.584 12.3117 30.7872 12.3117V7.02487H32.651V12.3117C33.8777 12.3117 34.1373 12.1185 34.1373 10.5011V7.02487H36.1426V10.477C36.1426 13.2049 35.0809 14.0256 32.8633 14.0256C32.132 14.0015 31.377 14.0015 30.5985 14.0015ZM45.768 8.64229H47.3723C47.5374 8.64229 47.6554 8.73885 47.6554 9.14924C47.6554 9.58377 47.5374 9.63205 47.3723 9.63205H45.768V8.64229ZM45.768 12.3599V11.1771H47.3723C47.6082 11.1771 47.7734 11.2978 47.7734 11.7806C47.7734 12.2392 47.6318 12.3599 47.4195 12.3599H45.768ZM48.198 10.3563C49.4248 10.2597 49.6843 9.70448 49.6843 8.71471C49.6843 7.53183 49.3304 7.02487 47.9621 7.02487H43.9043V14.0015H47.9621C49.0709 14.0015 49.8022 13.567 49.8022 12.1427C49.7787 11.0081 49.4956 10.4287 48.198 10.3563Z" fill="#696969"/>
<path d="M52.9401 16.6087C52.7514 16.5363 52.4211 16.488 52.0908 16.488C51.2887 16.488 50.9584 16.7536 50.9584 17.4054C50.9584 17.8882 51.1943 18.0572 51.7133 18.1296C52.1851 18.1779 52.2323 18.2262 52.2323 18.3469C52.2323 18.4676 52.1851 18.5158 51.8313 18.5158C51.5482 18.5158 51.2887 18.4676 51.1235 18.4434L50.982 19.0469C51.1943 19.1194 51.501 19.1676 51.8313 19.1676C52.657 19.1676 52.9637 18.9745 52.9637 18.2986C52.9637 17.8158 52.7042 17.5744 52.138 17.5019C51.7133 17.4537 51.6661 17.4295 51.6661 17.2847C51.6661 17.1881 51.7133 17.1157 52.0672 17.1157C52.3739 17.1157 52.6098 17.164 52.7749 17.1881L52.9401 16.6087ZM55.6767 19.1194V17.164H56.5025V16.5363H54.1669V17.164H54.9926V19.1194H55.6767ZM59.3099 16.5605H59.994V18.4676C59.994 19.0228 59.5458 19.1918 58.9088 19.1918C58.2483 19.1918 57.8236 19.0469 57.8236 18.4676V16.5605H58.5078V18.2986C58.5078 18.4434 58.6021 18.5158 58.9088 18.5158C59.2155 18.5158 59.3099 18.4434 59.3099 18.2986V16.5605ZM61.4567 16.5605V19.1194H62.5892C63.3913 19.1194 63.7923 18.8297 63.7923 17.8158C63.7923 16.826 63.3913 16.5605 62.5892 16.5605H61.4567ZM63.061 17.8399C63.061 18.4434 62.9666 18.5158 62.4948 18.5158H62.1409V17.164H62.4948C62.9666 17.164 63.061 17.2123 63.061 17.8399ZM65.8448 16.5605V19.1194H65.1607V16.5605H65.8448ZM68.6758 16.488C69.478 16.488 69.9262 16.7536 69.9262 17.7916C69.9262 18.8538 69.5016 19.1676 68.6758 19.1676C67.8737 19.1676 67.4255 18.8538 67.4255 17.7916C67.4255 16.7536 67.8501 16.488 68.6758 16.488ZM68.6758 18.5158C69.1477 18.5158 69.1949 18.4434 69.1949 17.7916C69.1949 17.1881 69.1477 17.1157 68.6758 17.1157C68.204 17.1157 68.1568 17.164 68.1568 17.7916C68.1568 18.4676 68.204 18.5158 68.6758 18.5158Z" fill="#C6C6C6"/>
</svg>
