<svg width="28" height="28" viewBox="0 0 28 28" fill="none" xmlns="http://www.w3.org/2000/svg">
<circle cx="14" cy="14" r="14" fill="#E5E5E5"/>
<g clip-path="url(#clip0)">
<path d="M20.4587 11.4456C21.0688 11.0125 21.5819 10.4719 22 9.84938V9.84875C21.4419 10.0931 20.8481 10.2556 20.2281 10.3344C20.8656 9.95375 21.3525 9.35562 21.5813 8.635C20.9869 8.98937 20.3306 9.23937 19.6312 9.37937C19.0669 8.77812 18.2625 8.40625 17.385 8.40625C15.6825 8.40625 14.3119 9.78813 14.3119 11.4819C14.3119 11.7256 14.3325 11.96 14.3831 12.1831C11.8269 12.0581 9.56437 10.8331 8.04437 8.96625C7.77938 9.42687 7.62312 9.95375 7.62312 10.5206C7.62312 11.5856 8.17125 12.5294 8.98938 13.0763C8.495 13.0669 8.01063 12.9231 7.6 12.6975V12.7312C7.6 14.2256 8.66562 15.4669 10.0638 15.7531C9.81312 15.8219 9.54063 15.8544 9.2575 15.8544C9.06063 15.8544 8.86188 15.8431 8.67562 15.8019C9.07375 17.0194 10.205 17.915 11.5487 17.9444C10.5025 18.7625 9.17375 19.2556 7.73563 19.2556C7.48375 19.2556 7.24187 19.2444 7 19.2137C8.3625 20.0919 9.97625 20.5938 11.7175 20.5938C17.1444 20.5938 20.6813 16.0662 20.4587 11.4456Z" fill="#5D4F44"/>
</g>
<defs>
<clipPath id="clip0">
<rect x="7" y="7" width="15" height="15" fill="white"/>
</clipPath>
</defs>
</svg>
