<svg width="28" height="28" viewBox="0 0 28 28" fill="none" xmlns="http://www.w3.org/2000/svg">
<circle cx="14" cy="14" r="14" fill="#E5E5E5"/>
<path fill-rule="evenodd" clip-rule="evenodd" d="M21.9843 10.704C21.9468 9.8539 21.8093 9.26944 21.6124 8.76299C21.4092 8.22541 21.0967 7.74412 20.6872 7.34401C20.2871 6.93768 19.8026 6.62195 19.2712 6.42196C18.7619 6.22502 18.1805 6.08754 17.3303 6.05006C16.4738 6.0094 16.2019 6 14.0296 6C11.8573 6 11.5854 6.0094 10.7321 6.04688C9.88197 6.08437 9.29751 6.22197 8.79119 6.41878C8.25348 6.62195 7.77219 6.93451 7.37209 7.34401C6.96576 7.74412 6.65014 8.22859 6.45003 8.75994C6.2531 9.26944 6.11562 9.85073 6.07813 10.7009C6.03748 11.5574 6.02808 11.8293 6.02808 14.0016C6.02808 16.1739 6.03748 16.4458 6.07496 17.2991C6.11244 18.1492 6.25004 18.7337 6.44698 19.2401C6.65014 19.7777 6.96576 20.259 7.37209 20.6591C7.77219 21.0654 8.25666 21.3812 8.78801 21.5812C9.29751 21.7781 9.8788 21.9156 10.7291 21.9531C11.5823 21.9907 11.8543 22 14.0266 22C16.1989 22 16.4708 21.9907 17.3241 21.9531C18.1742 21.9156 18.7587 21.7781 19.265 21.5812C20.3403 21.1654 21.1904 20.3153 21.6062 19.2401C21.803 18.7306 21.9406 18.1492 21.9781 17.2991C22.0156 16.4458 22.025 16.1739 22.025 14.0016C22.025 11.8293 22.0218 11.5574 21.9843 10.704ZM20.5435 17.2366C20.509 18.018 20.3778 18.4399 20.2684 18.7212C19.9995 19.4183 19.4463 19.9715 18.7493 20.2403C18.468 20.3497 18.043 20.481 17.2646 20.5153C16.4207 20.5529 16.1676 20.5622 14.0328 20.5622C11.898 20.5622 11.6417 20.5529 10.8009 20.5153C10.0195 20.481 9.59749 20.3497 9.31619 20.2403C8.96932 20.1121 8.65359 19.909 8.39731 19.6433C8.13163 19.3838 7.92847 19.0713 7.80027 18.7244C7.69087 18.4431 7.55962 18.018 7.52531 17.2397C7.48771 16.3958 7.47843 16.1426 7.47843 14.0078C7.47843 11.873 7.48771 11.6167 7.52531 10.776C7.55962 9.99456 7.69087 9.5726 7.80027 9.29129C7.92847 8.9443 8.13163 8.62869 8.40048 8.37229C8.65981 8.10661 8.97237 7.90345 9.31936 7.77537C9.60067 7.66598 10.0258 7.53472 10.804 7.50029C11.6479 7.46281 11.9012 7.45341 14.0359 7.45341C16.1738 7.45341 16.4269 7.46281 17.2678 7.50029C18.0492 7.53472 18.4712 7.66598 18.7525 7.77537C19.0993 7.90345 19.4151 8.10661 19.6713 8.37229C19.937 8.63174 20.1402 8.9443 20.2684 9.29129C20.3778 9.5726 20.509 9.99761 20.5435 10.776C20.5809 11.6199 20.5903 11.873 20.5903 14.0078C20.5903 16.1426 20.5809 16.3927 20.5435 17.2366ZM14.0296 9.89139C11.7605 9.89139 9.91946 11.7323 9.91946 14.0016C9.91946 16.2708 11.7605 18.1118 14.0296 18.1118C16.2989 18.1118 18.1398 16.2708 18.1398 14.0016C18.1398 11.7323 16.2989 9.89139 14.0296 9.89139ZM14.0296 16.6677C12.5576 16.6677 11.3635 15.4738 11.3635 14.0016C11.3635 12.5294 12.5576 11.3354 14.0296 11.3354C15.5019 11.3354 16.6958 12.5294 16.6958 14.0016C16.6958 15.4738 15.5019 16.6677 14.0296 16.6677ZM18.3023 10.6884C18.8323 10.6884 19.262 10.2588 19.262 9.72888C19.262 9.19887 18.8323 8.76934 18.3023 8.76934C17.7724 8.76934 17.3428 9.19887 17.3428 9.72888C17.3428 10.2588 17.7724 10.6884 18.3023 10.6884Z" fill="#5D4F44"/>
</svg>
