<svg width="18" height="18" viewBox="0 0 18 18" fill="none" xmlns="http://www.w3.org/2000/svg">
<path d="M7.92682 0C3.55609 0 0 3.55609 0 7.92682C0 12.2978 3.55609 15.8536 7.92682 15.8536C12.2978 15.8536 15.8536 12.2978 15.8536 7.92682C15.8536 3.55609 12.2978 0 7.92682 0ZM7.92682 14.3903C4.36293 14.3903 1.46341 11.4907 1.46341 7.92685C1.46341 4.36296 4.36293 1.46341 7.92682 1.46341C11.4907 1.46341 14.3902 4.36293 14.3902 7.92682C14.3902 11.4907 11.4907 14.3903 7.92682 14.3903Z" fill="black"/>
<path d="M17.7856 16.751L13.5905 12.5559C13.3046 12.27 12.8417 12.27 12.5558 12.5559C12.27 12.8415 12.27 13.3049 12.5558 13.5905L16.751 17.7856C16.8939 17.9285 17.081 18 17.2683 18C17.4554 18 17.6427 17.9285 17.7856 17.7856C18.0715 17.5 18.0715 17.0366 17.7856 16.751Z" fill="black"/>
</svg>
