<svg width="47" height="47" viewBox="0 0 47 47" fill="none" xmlns="http://www.w3.org/2000/svg">
<path d="M23.5 0C13.781 0 5.875 7.90692 5.875 17.625C5.875 30.6277 22.1364 46.082 22.8288 46.7342C23.0181 46.911 23.259 47 23.5 47C23.741 47 23.9819 46.911 24.1713 46.7342C24.8636 46.082 41.125 30.6277 41.125 17.625C41.125 7.90692 33.219 0 23.5 0ZM23.5 27.4167C18.1012 27.4167 13.7083 23.0238 13.7083 17.625C13.7083 12.2262 18.1012 7.8333 23.5 7.8333C28.8988 7.8333 33.2917 12.2262 33.2917 17.625C33.2917 23.0238 28.8988 27.4167 23.5 27.4167Z" fill="white"/>
</svg>
