<svg width="59" height="35" viewBox="0 0 59 35" fill="none" xmlns="http://www.w3.org/2000/svg">
<path d="M58.1357 32.58H46.7011V28.49C46.7011 25.7207 44.4482 23.4677 41.679 23.4677H39.0066V21.2415C39.0066 19.5917 37.6645 18.2494 36.0145 18.2494H33.2138V17.4165C33.2138 15.3688 31.5478 13.7029 29.5 13.7029C27.4523 13.7029 25.7863 15.3688 25.7863 17.4165V18.2494H23.8305C23.3531 18.2494 22.9662 18.6363 22.9662 19.1137C22.9662 19.5911 23.3531 19.978 23.8305 19.978H36.0144C36.7111 19.978 37.278 20.5448 37.278 21.2415V23.4677H21.7221V21.2415C21.7221 21.1948 21.7265 21.1406 21.7357 21.0708C21.799 20.5978 21.4667 20.1629 20.9936 20.0998C20.5202 20.0368 20.0857 20.3688 20.0225 20.8419C20.0028 20.9894 19.9936 21.1164 19.9936 21.2415V23.4677H17.3212C14.5519 23.4677 12.299 25.7207 12.299 28.49V32.58H0.864258C0.386842 32.58 0 32.9668 0 33.4442C0 33.9217 0.386842 34.3085 0.864258 34.3085H37.4947C37.9721 34.3085 38.359 33.9217 38.359 33.4442C38.359 32.9668 37.9721 32.58 37.4947 32.58H14.0274V28.49C14.0274 26.6738 15.5049 25.1962 17.3211 25.1962H41.6789C43.495 25.1962 44.9725 26.6738 44.9725 28.49V32.58H40.9501C40.4727 32.58 40.0859 32.9668 40.0859 33.4442C40.0859 33.9217 40.4727 34.3085 40.9501 34.3085H58.1357C58.6132 34.3085 59 33.9217 59 33.4442C59 32.9668 58.6132 32.58 58.1357 32.58ZM27.5149 18.2493V17.4164C27.5149 16.3218 28.4054 15.4313 29.5 15.4313C30.5946 15.4313 31.4853 16.3218 31.4853 17.4164V18.2493H27.5149Z" fill="#5D4F44"/>
<path d="M32.6396 26.4783C32.1622 26.4783 31.7753 26.8651 31.7753 27.3425C31.7753 27.8199 32.1622 28.2068 32.6396 28.2068H33.1314C33.6088 28.2068 33.9957 27.8199 33.9957 27.3425C33.9957 26.8651 33.6088 26.4783 33.1314 26.4783H32.6396Z" fill="#5D4F44"/>
<path d="M36.6309 26.4783C36.1535 26.4783 35.7667 26.8651 35.7667 27.3425C35.7667 27.8199 36.1535 28.2068 36.6309 28.2068H36.9589C37.4363 28.2068 37.8231 27.8199 37.8231 27.3425C37.8231 26.8651 37.4363 26.4783 36.9589 26.4783H36.6309Z" fill="#5D4F44"/>
<path d="M40.9502 28.2068C41.4276 28.2068 41.8144 27.8199 41.8144 27.3425C41.8144 26.8651 41.4276 26.4783 40.9502 26.4783H40.6223C40.1449 26.4783 39.7581 26.8651 39.7581 27.3425C39.7581 27.8199 40.1449 28.2068 40.6223 28.2068H40.9502Z" fill="#5D4F44"/>
<path d="M26.4345 10.6212C26.097 10.9588 26.097 11.506 26.4345 11.8435C26.7722 12.1809 27.3193 12.1809 27.6568 11.8435C28.1491 11.3512 28.8036 11.08 29.4999 11.08C30.1962 11.08 30.8508 11.3512 31.3431 11.8435C31.6808 12.181 32.2278 12.1809 32.5653 11.8435C32.9029 11.5059 32.9029 10.9587 32.5653 10.6212C30.875 8.93084 28.1249 8.93107 26.4345 10.6212Z" fill="#5D4F44"/>
<path d="M35.575 8.83388C35.9127 8.49636 35.9127 7.94911 35.5751 7.61171C33.9524 5.98886 31.7949 5.09521 29.5 5.09521C27.2052 5.09521 25.0476 5.98886 23.4248 7.61159C23.0873 7.94923 23.0873 8.49636 23.4248 8.83388C23.7625 9.17129 24.3096 9.17129 24.6471 8.83388C25.9433 7.53761 27.6667 6.82373 29.4999 6.82373C31.333 6.82373 33.0565 7.53761 34.3526 8.83377C34.6903 9.17117 35.2374 9.17152 35.575 8.83388Z" fill="#5D4F44"/>
<path d="M21.0398 5.22639C25.7047 0.561365 33.2953 0.561134 37.9603 5.22639C38.298 5.56391 38.845 5.5638 39.1825 5.22639C39.5201 4.88876 39.5201 4.34162 39.1825 4.0041C33.8436 -1.33459 25.1566 -1.33482 19.8174 4.0041C19.4799 4.34174 19.4799 4.88887 19.8174 5.22639C20.155 5.5638 20.7022 5.5638 21.0398 5.22639Z" fill="#5D4F44"/>
</svg>
