<svg width="20" height="20" viewBox="0 0 20 20" fill="none" xmlns="http://www.w3.org/2000/svg">
<path d="M14.6667 0.865784C12.3205 0.865784 10.7695 2.14684 10 2.99442C9.23059 2.14692 7.67945 0.865784 5.33332 0.865784C2.13207 0.865784 0 3.8427 0 7.1775C0 9.67274 1.25824 14.5339 9.6848 19.055C9.88156 19.1606 10.1183 19.1607 10.3152 19.055C18.7418 14.5338 20 9.67274 20 7.1775C20 3.76532 17.8048 0.865784 14.6667 0.865784ZM10 17.7089C5.95238 15.4834 1.33332 11.7754 1.33332 7.1775C1.33332 4.61981 2.86922 2.19914 5.33332 2.19914C7.20273 2.19914 8.74941 3.34539 9.43383 4.42465C9.69473 4.8443 10.3075 4.84387 10.5673 4.42285C10.5811 4.40063 11.9711 2.1991 14.6667 2.1991C17.1491 2.1991 18.6667 4.64406 18.6667 7.17746C18.6667 11.7755 14.0477 15.4834 10 17.7089Z" fill="black"/>
</svg>
