<svg width="15" height="15" viewBox="0 0 15 15" fill="none" xmlns="http://www.w3.org/2000/svg">
<path d="M11 0.649338C9.24041 0.649338 8.07709 1.61013 7.5 2.24581C6.92294 1.61019 5.75959 0.649338 3.99999 0.649338C1.59905 0.649338 0 2.88202 0 5.38313C0 7.25455 0.943682 10.9004 7.2636 14.2913C7.41117 14.3704 7.58874 14.3705 7.7364 14.2913C14.0563 10.9004 15 7.25455 15 5.38313C15 2.82399 13.3536 0.649338 11 0.649338ZM7.5 13.2817C4.46429 11.6126 0.99999 8.83154 0.99999 5.38313C0.99999 3.46486 2.15191 1.64936 3.99999 1.64936C5.40205 1.64936 6.56206 2.50904 7.07537 3.31849C7.27104 3.63322 7.7306 3.6329 7.92548 3.31714C7.93579 3.30047 8.97835 1.64933 11 1.64933C12.8619 1.64933 14 3.48305 14 5.3831C14 8.8316 10.5358 11.6126 7.5 13.2817Z" fill="#201F1D"/>
</svg>
