<svg width="15" height="15" viewBox="0 0 15 15" fill="none" xmlns="http://www.w3.org/2000/svg">
<path d="M7.7039 0C3.59278 0 1.40643 2.63449 1.40643 5.50712C1.40643 6.83937 2.15084 8.50069 3.34246 9.02759C3.5234 9.10916 3.62185 9.07447 3.66216 8.90665C3.69779 8.77914 3.85436 8.16505 3.9303 7.87535C3.95373 7.78254 3.94155 7.70191 3.86654 7.61472C3.4709 7.1572 3.15682 6.32372 3.15682 5.54181C3.15682 3.53828 4.74971 1.59288 7.46014 1.59288C9.804 1.59288 11.4438 3.11545 11.4438 5.29336C11.4438 7.75441 10.1415 9.45699 8.44925 9.45699C7.51264 9.45699 6.81511 8.72195 7.03637 7.81254C7.30357 6.72968 7.82766 5.56525 7.82766 4.78428C7.82766 4.08393 7.43202 3.50453 6.62385 3.50453C5.67037 3.50453 4.8969 4.44864 4.8969 5.71619C4.8969 6.52154 5.18192 7.06532 5.18192 7.06532C5.18192 7.06532 4.23875 10.8755 4.06343 11.5871C3.76716 12.7918 4.10374 14.7428 4.13281 14.9107C4.15062 15.0035 4.25469 15.0325 4.31281 14.9566C4.40563 14.8347 5.54568 13.2081 5.86538 12.0324C5.98164 11.604 6.45885 9.86669 6.45885 9.86669C6.77292 10.4339 7.67953 10.9092 8.6452 10.9092C11.5178 10.9092 13.5935 8.38444 13.5935 5.25117C13.5832 2.24729 11.0125 0 7.7039 0Z" fill="#5D4F44"/>
</svg>
