<svg width="16" height="15" viewBox="0 0 16 15" fill="none" xmlns="http://www.w3.org/2000/svg">
<path fill-rule="evenodd" clip-rule="evenodd" d="M0.414062 7.5C0.414062 3.35625 3.85328 0 8.09547 0C12.3414 0 15.7797 3.35625 15.7797 7.5C15.7797 11.6438 12.3414 15 8.09547 15C7.25781 15 6.4525 14.8688 5.69828 14.6287C6.24437 11.5331 8.24641 9.00844 10.892 7.93734C11.0544 8.11991 11.2537 8.26586 11.4767 8.36551C11.6998 8.46516 11.9415 8.51622 12.1858 8.51531C13.1284 8.51531 13.892 7.76859 13.892 6.84656C13.892 5.92547 13.1284 5.17875 12.1858 5.17875C11.2427 5.17875 10.4795 5.92312 10.4772 6.84328C7.10078 7.83469 4.36516 10.1358 2.97719 13.0931C2.53696 12.7096 2.14276 12.2762 1.8025 11.8017C1.88219 8.92172 3.34141 6.405 5.52625 4.92188C5.68826 5.09931 5.8856 5.24089 6.10558 5.33752C6.32556 5.43415 6.56332 5.48369 6.80359 5.48297C7.74719 5.48297 8.51125 4.73391 8.51125 3.81422C8.51125 2.89219 7.74719 2.14594 6.80359 2.14594C5.85906 2.14594 5.095 2.89219 5.095 3.81469C5.095 3.8625 5.09828 3.91172 5.10203 3.95766C3.06719 4.65469 1.39656 6.03375 0.419219 7.79063C0.414531 7.69594 0.414062 7.59703 0.414062 7.5Z" fill="#FCCF00"/>
</svg>
