<svg width="25" height="23" viewBox="0 0 25 23" fill="none" xmlns="http://www.w3.org/2000/svg">
<path fill-rule="evenodd" clip-rule="evenodd" d="M8.05474 15.1623H8.05588L8.05874 15.1621H21.3379C21.6648 15.1621 21.9523 14.9452 22.0421 14.6309L24.9718 4.37701C25.0349 4.15594 24.9907 3.91829 24.8524 3.7348C24.7139 3.55132 24.4974 3.44336 24.2676 3.44336H6.36559L5.84202 1.08721C5.76744 0.75209 5.47028 0.513672 5.12695 0.513672H0.732422C0.327873 0.513672 0 0.841545 0 1.24609C0 1.65064 0.327873 1.97852 0.732422 1.97852H4.53949L7.18384 13.8785C6.40545 14.2168 5.85938 14.9929 5.85938 15.8945C5.85938 17.1061 6.8451 18.0918 8.05664 18.0918H9.51564C8.30677 18.095 7.32421 19.0795 7.32421 20.2891C7.32421 21.5006 8.30993 22.4863 9.52148 22.4863C10.733 22.4863 11.7187 21.5006 11.7187 20.2891C11.7187 19.0795 10.7362 18.095 9.52732 18.0918H19.8672C18.6583 18.095 17.6758 19.0795 17.6758 20.2891C17.6758 21.5006 18.6615 22.4863 19.873 22.4863C21.0846 22.4863 22.0703 21.5006 22.0703 20.2891C22.0703 19.0795 21.0878 18.095 19.8789 18.0918H21.3379C21.7424 18.0918 22.0703 17.7639 22.0703 17.3594C22.0703 16.9548 21.7424 16.627 21.3379 16.627H8.05664C7.65286 16.627 7.32422 16.2983 7.32422 15.8945C7.32422 15.4913 7.65171 15.1633 8.05474 15.1623ZM23.2966 4.9082L20.7853 13.6973H8.64411L6.69098 4.9082H23.2966ZM9.52148 19.5566C9.92527 19.5566 10.2539 19.8853 10.2539 20.2891C10.2539 20.6928 9.92527 21.0215 9.52148 21.0215C9.11769 21.0215 8.78906 20.6928 8.78906 20.2891C8.78906 19.8853 9.11769 19.5566 9.52148 19.5566ZM20.6055 20.2891C20.6055 19.8853 20.2768 19.5566 19.873 19.5566C19.4693 19.5566 19.1406 19.8853 19.1406 20.2891C19.1406 20.6928 19.4693 21.0215 19.873 21.0215C20.2768 21.0215 20.6055 20.6928 20.6055 20.2891Z" fill="white"/>
</svg>
