<svg width="16" height="16" viewBox="0 0 16 16" fill="none" xmlns="http://www.w3.org/2000/svg">
<path d="M15.6251 7.81325C15.6251 12.1283 12.1283 15.6265 7.81325 15.6265C3.49824 15.6265 0 12.1283 0 7.81325C0 3.49823 3.49824 0 7.81325 0C12.1283 0 15.6251 3.49823 15.6251 7.81325Z" fill="#EE3023"/>
<path d="M7.87407 12.1698C5.72805 12.1771 3.49446 10.3454 3.48441 7.40266C3.47722 5.4576 4.528 3.58431 5.86872 2.47326C7.17787 1.39091 8.97077 0.694704 10.5957 0.688965C10.8053 0.688965 11.0249 0.706161 11.1584 0.752099C9.73731 1.04637 8.60616 2.36986 8.61047 3.86994C8.61047 3.92015 8.61474 3.97327 8.62047 3.99768C10.999 4.57762 12.0785 6.01309 12.0857 7.99833C12.0914 9.98503 10.5239 12.1612 7.87403 12.1698" fill="white"/>
</svg>
